<?xml version="1.0" encoding="utf-8"?>
<!-- Generator: Adobe Illustrator 27.1.1, SVG Export Plug-In . SVG Version: 6.00 Build 0)  -->
<svg version="1.1" id="Layer_1" xmlns="http://www.w3.org/2000/svg" xmlns:xlink="http://www.w3.org/1999/xlink" x="0px" y="0px"
	 viewBox="0 0 646.3 196.3" style="enable-background:new 0 0 646.3 196.3;" xml:space="preserve">
<style type="text/css">
	.st0{fill:#022A9A;}
	.st1{fill:#FF5874;}
</style>
<g>
	<g>
		<g>
			<g>
				<path class="st0" d="M419.7,50.9V26.7C435,26,445.5,15,446.2,0h24.5C470.2,28.3,448,49.9,419.7,50.9z"/>
				<g>
					<path class="st0" d="M280.9,166.7v26.6H273c-17.8,0-28.8-7.4-32.3-21.2c-10.1,14.8-26.1,24.2-45.4,24.2
						c-35.5,0-61.9-28.4-61.9-65.8s26.4-65.8,61.9-65.8c18.5,0,34,8.6,44.1,22.4V67.6H267v87.5c0,7.2,4.2,11.6,11.6,11.6H280.9z
						 M239.4,130.4c0-22.2-16.5-39.2-38.7-39.2c-22.4,0-39,17-39,39.2c0,22.2,16.5,39.2,39,39.2
						C222.9,169.6,239.4,152.6,239.4,130.4z"/>
					<path class="st0" d="M303.2,0h29.3v193.3h-29.3V0z"/>
					<path class="st0" d="M500,166.7v26.6h-7.9c-17.8,0-28.8-7.4-32.3-21.2c-10.1,14.8-26.1,24.2-45.4,24.2
						c-35.5,0-61.9-28.4-61.9-65.8s26.4-65.8,61.9-65.8c18.5,0,34,8.6,44.1,22.4V67.6h27.6v87.5c0,7.2,4.2,11.6,11.6,11.6H500z
						 M458.6,130.4c0-22.2-16.5-39.2-38.7-39.2c-22.4,0-39,17-39,39.2c0,22.2,16.5,39.2,39,39.2
						C442.1,169.6,458.6,152.6,458.6,130.4z"/>
				</g>
			</g>
		</g>
		<g>
			<g>
				<path class="st0" d="M56.5,196.3c-35,0-56.5-19-56.5-48.3V68h27.4l0,71.1c0,21.9,11.5,30.8,29.1,30.8c18.6,0,31.1-9.9,31.1-30.8
					l0-71.1H115v80.2C115,180.1,91.6,196.3,56.5,196.3z"/>
			</g>
		</g>
	</g>
	<polygon class="st1" points="646.3,115.9 598.3,115.9 598.3,68 569,68 569,115.9 521,115.9 521,145.3 569,145.3 569,193.2 
		598.3,193.2 598.3,145.3 646.3,145.3 	"/>
</g>
</svg>
